<svg width="626" height="526" viewBox="0 0 626 526" fill="none" xmlns="http://www.w3.org/2000/svg">
<path d="M235.582 493.538C216.952 493.538 220.119 486.504 213.693 468.765L158.915 288.489L580.582 38.3301" fill="#CBD9E8"/>
<path d="M235.581 493.539C249.956 493.539 256.305 486.965 264.331 479.164L340.998 404.615L245.366 346.947" fill="#AFC9DE"/>
<path d="M245.357 346.962L477.082 518.163C503.527 532.754 522.607 525.197 529.196 493.615L623.52 49.1259C633.175 10.4093 608.761 -7.15699 583.461 4.32863L29.5928 217.898C-8.21341 233.064 -7.9882 254.157 22.7024 263.553L164.838 307.919L493.896 100.32C509.43 90.8997 523.69 95.9597 511.989 106.348" fill="white"/>
</svg>
